<?xml version='1.0' encoding='utf-8'?>
<svg xmlns:xlink="http://www.w3.org/1999/xlink" xmlns="http://www.w3.org/2000/svg" version="1.1" id="Layer_1" x="0px" y="0px" viewBox="0 0 4999.999 5000" enable-background="new 0 0 4999.999 5000"> <symbol id="Object" viewBox="-270.896 -586.791 541.792 1173.582"> <path fill="none" stroke="#000000" stroke-width="2.1357" d="M78.099-585.744c-46.686,27.695-153.324,89.731-244.396,159.195 c0,0,0,0,0,0c-28.835,21.991-72.424,57.183-92.599,87.149c-15.753,23.394-12.455,34.867-2.827,46.608h0 c4.706,5.739,10.311,10.682,16.127,15.292c0,0,0,0,0,0c16.39,12.992,34.6,23.498,52.954,33.525l0,0 c44.654,24.396,105.171,51.605,154.612,73.97l0,0C33.252-137.76,154.878-84.756,185.664-47.217c0,0,0,0,0,0 c7.645,9.321,9.812,15.721,7.138,32.826l0,0c-4.704,30.087-23.893,79.771-35.315,108.157l0,0 c-26.67,66.281-63.228,145.142-93.99,209.417c0,0,0,0,0,0C32.028,368.932-0.405,434.216-33.435,499.188l0,0 c-10.695,21.038-21.455,42.041-32.298,63.002c0,0,0,0,0,0c-3.021,5.839-6.048,11.675-9.085,17.505c0,0,0,0,0,0 c-0.799,1.533-1.598,3.066-2.399,4.598c0,0,0,0,0,0c-0.205,0.393-0.411,0.785-0.616,1.178c0,0,0,0,0,0 c-0.218,0.417-0.182,0.346-0.21,0.4l0,0"/> <path fill="none" stroke="#000000" stroke-width="2.1357" d="M78.073-585.729c-0.052,0.036-0.576,0.356-4.022,2.546c0,0,0,0,0,0 c-3.8,2.416-7.592,4.847-11.377,7.287h0c-13.56,8.74-27.045,17.595-40.472,26.54l0,0c-41.247,27.483-81.956,55.786-121.719,85.376 c0,0,0,0,0,0C-135.86-436.934-275.1-333.211-265.333-288.578c0,0,0,0,0,0c1.151,5.259,4.19,9.919,7.604,14.081c0,0,0,0,0,0 c4.706,5.739,10.311,10.682,16.127,15.292c0,0,0,0,0,0c31.195,24.728,89.479,52.887,125.39,69.819l0,0 c27.255,12.851,54.72,25.257,82.176,37.677l0,0C37.245-119.464,158.871-66.46,189.657-28.921c0,0,0,0,0,0 c7.143,8.71,8.418,14.417,8.192,22.101c-0.841,28.569-25.877,89.567-36.995,116.022l0,0 c-27.077,64.435-64.182,140.911-95.366,203.126c0,0,0,0,0,0c-45.672,91.127-94.941,184.4-143.543,273.544l0,0"/> <path fill="none" stroke="#000000" stroke-width="2.1357" d="M78.099-585.744C23.918-547.266-74.894-477.789-160.822-401.537 c0,0,0,0,0,0c-28.369,25.176-70.805,64.867-90.411,97.152c-15.52,25.554-11.893,36.706-2.483,48.18l0,0 c4.706,5.739,10.311,10.682,16.127,15.292c0,0,0,0,0,0c16.39,12.992,34.6,23.498,52.954,33.525l0,0 c23.704,12.95,48.004,24.774,72.436,36.293l0,0C6.929-114.924,157.409-54.845,193.67-10.63c0,0,0,0,0,0 c7.177,8.751,8.424,14.508,8.18,22.048c-0.909,28.204-26.235,87.318-37.609,113.218l0,0 c-27.408,62.411-64.939,136.298-96.742,196.838c0,0,0,0,0,0C35.137,383.082,1.783,444.167-32.184,504.906c0,0,0,0,0,0 c-22.016,39.367-33.939,60.139-45.86,80.965l0,0"/> <path fill="none" stroke="#000000" stroke-width="2.1357" d="M78.099-585.744C14.261-536.548-76.624-466.593-158.085-389.029 c0,0,0,0,0,0c-18.467,17.583-36.522,35.624-53.436,54.705c0,0,0,0,0,0c-15.163,17.105-38.139,44.659-44.61,66.792 c-3.536,12.095-1.675,19.754,6.418,29.622l0,0c4.706,5.739,10.311,10.682,16.127,15.292c0,0,0,0,0,0 c31.158,24.699,89.328,52.816,125.39,69.819l0,0c27.255,12.851,54.72,25.257,82.176,37.677l0,0 c49.932,22.587,191,82.922,223.693,122.788l0,0c8.102,9.879,9.727,16.763,7.003,32.209c-1.981,7.449-3.766,27.705-37.056,100.198 l0,0c-27.799,60.536-65.833,131.964-98.116,190.549c0,0,0,0,0,0C36.693,390.162,2.878,449.147-31.557,507.764c0,0,0,0,0,0 c-11.145,18.972-22.359,37.904-33.66,56.785c0,0,0,0,0,0c-3.148,5.259-6.302,10.514-9.467,15.763c0,0,0,0,0,0 c-0.832,1.38-1.665,2.76-2.499,4.139c0,0,0,0,0,0c-0.214,0.354-0.428,0.707-0.642,1.06c0,0,0,0,0,0 c-0.024,0.04-0.194,0.321-0.219,0.36l0,0"/> <path fill="none" stroke="#000000" stroke-width="2.1357" d="M78.073-585.729c-0.213,0.167-3.108,2.526-3.886,3.162c0,0,0,0,0,0 c-3.674,2.999-7.338,6.011-10.995,9.03c0,0,0,0,0,0c-13.114,10.826-26.145,21.752-39.11,32.759l0,0 c-39.936,33.903-79.274,68.519-117.59,104.242c0,0,0,0,0,0c-33.962,31.661-169.65,157.894-159.814,202.841c0,0,0,0,0,0 c5.119,23.394,55.428,51.286,76.684,62.899h0c23.702,12.95,48.004,24.774,72.436,36.293c0,0,0,0,0,0 C-24.787-97.059,68.037-58.123,132.587-22.857l0,0c18.354,10.028,36.564,20.533,52.954,33.525c0,0,0,0,0,0 c8.93,7.079,21.277,18.16,23.731,29.374c0,0,0,0,0,0c0.563,2.573,0.654,5.23,0.554,7.861l0,0 c-2.929,77-199.788,396.394-240.764,462.72c0,0,0,0,0,0c-22.664,36.684-34.891,55.942-47.112,75.249l0,0"/> <path fill="none" stroke="#000000" stroke-width="2.1357" d="M78.099-585.744c-43.242,38.738-98.961,87.862-169.597,158.352 c0,0,0,0,0,0c-42.154,42.069-120.58,122.821-148.241,175.529c-16.364,31.182-13.436,43.956,14.16,65.831c0,0,0,0,0,0 C-158.882-133.161,29.129-63.281,136.6-4.566l0,0c18.354,10.028,36.564,20.533,52.954,33.525c0,0,0,0,0,0 c8.93,7.079,21.277,18.16,23.731,29.374c0,0,0,0,0,0c0.559,2.556,0.649,5.195,0.542,7.809c0,0,0,0,0,0 c-2.289,55.785-111.094,234.734-140.318,282.772c0,0,0,0,0,0C39.799,404.328,5.063,459.112-30.303,513.481c0,0,0,0,0,0 c-11.447,17.596-22.963,35.147-34.567,52.639c0,0,0,0,0,0c-3.232,4.872-6.471,9.741-9.721,14.601c0,0,0,0,0,0 c-0.855,1.278-1.71,2.556-2.567,3.833c0,0,0,0,0,0c-0.112,0.167-0.771,1.149-0.884,1.315l0,0"/> <path fill="none" stroke="#000000" stroke-width="2.1357" d="M78.099-585.744c-42.762,41.08-97.836,93.189-167.596,167.501l0,0 c-20.532,21.873-40.747,44.049-60.38,66.734c0,0,0,0,0,0c-23.619,27.292-103.082,119.437-95.432,154.4c0,0,0,0,0,0 c2.452,11.206,14.781,22.28,23.731,29.374c0,0,0,0,0,0c66.545,52.75,255.28,123.063,362.179,181.465l0,0 c21.167,11.564,71.562,39.49,76.684,62.899c0,0,0,0,0,0c0.555,2.539,0.645,5.16,0.531,7.757c0,0,0,0,0,0 c-3.314,75.137-204.918,369.877-247.497,431.955c0,0,0,0,0,0c-23.236,33.877-35.787,51.657-48.365,69.53l0,0"/> <path fill="none" stroke="#000000" stroke-width="2.1357" d="M78.099-585.744c-41.645,42.772-96.52,98.305-165.592,176.649l0,0 c-20.29,23.014-40.26,46.311-59.644,70.092h0c-22.709,27.857-101.847,125.094-94.167,160.188c0,0,0,0,0,0 c2.452,11.206,14.781,22.28,23.731,29.374c0,0,0,0,0,0c66.545,52.75,255.28,123.063,362.179,181.465l0,0 c18.354,10.028,36.564,20.533,52.954,33.525c0,0,0,0,0,0c8.93,7.079,21.277,18.16,23.731,29.374c0,0,0,0,0,0 c9.96,45.515-116.413,231.735-143.778,272.288c0,0,0,0,0,0C42.898,418.503,7.243,469.084-29.052,519.2c0,0,0,0,0,0 c-23.538,32.499-36.427,49.775-48.991,66.671l0,0"/> <path fill="none" stroke="#000000" stroke-width="2.1357" d="M78.099-585.744C36.751-540.466-17.283-482.126-85.493-399.947l0,0 c-40.727,49.072-116.268,142.685-142.755,200.613c0,0,0,0,0,0c-4.84,10.585-11.542,27.445-9.055,38.815c0,0,0,0,0,0 c5.119,23.394,55.428,51.286,76.684,62.899l0,0c23.702,12.95,48.004,24.774,72.436,36.293l0,0 C-8.767-23.882,84.057,15.054,148.607,50.32l0,0c18.354,10.028,36.564,20.533,52.954,33.525c0,0,0,0,0,0 c8.93,7.079,21.277,18.16,23.731,29.374c0,0,0,0,0,0c0.548,2.504,0.637,5.091,0.508,7.652l0,0 C223.092,174.499,110.81,332.421,79.51,376.364c0,0,0,0,0,0c-35.067,49.233-71.183,97.716-107.94,145.7c0,0,0,0,0,0 c-11.899,15.533-23.869,31.012-35.929,46.422c0,0,0,0,0,0c-3.359,4.293-6.726,8.58-10.103,12.859c0,0,0,0,0,0 c-0.888,1.125-1.777,2.25-2.667,3.373c0,0,0,0,0,0c-0.228,0.288-0.457,0.576-0.685,0.864c0,0,0,0,0,0 c-0.027,0.034-0.211,0.266-0.234,0.293l0,0"/> <path fill="none" stroke="#000000" stroke-width="2.1357" d="M78.099-585.744C17.471-515.128-211.672-248.779-232.38-158.998 c-3.38,14.655-3.022,25.667,22.814,46.147c16.39,12.992,34.6,23.498,52.954,33.525l0,0c23.702,12.95,48.004,24.774,72.436,36.293 c0,0,0,0,0,0C-3.807-5.138,87.976,33.3,152.613,68.614l0,0c18.354,10.028,36.564,20.533,52.954,33.525l0,0 c8.93,7.079,21.277,18.16,23.731,29.374c0,0,0,0,0,0c0.544,2.487,0.633,5.057,0.496,7.599l0,0 c-2.843,52.845-116.427,204.094-148.276,246.395c0,0,0,0,0,0C45.995,432.686,9.419,479.066-27.797,524.919c0,0,0,0,0,0 c-12.05,14.846-24.171,29.634-36.381,44.349c0,0,0,0,0,0c-3.402,4.1-6.811,8.194-10.23,12.278c0,0,0,0,0,0 c-0.899,1.074-1.799,2.148-2.701,3.22c0,0,0,0,0,0c-0.231,0.275-0.462,0.55-0.694,0.825c0,0,0,0,0,0 c-0.022,0.026-0.214,0.254-0.237,0.28l0,0"/> <path fill="none" stroke="#000000" stroke-width="2.1357" d="M78.099-585.744C37.687-535.79-15.132-471.34-81.487-381.652l0,0 c-19.554,26.427-38.787,53.096-57.44,80.168c0,0,0,0,0,0c-22.922,33.266-88.706,129.614-90.865,169.932c0,0,0,0,0,0 c-0.137,2.55-0.05,5.126,0.496,7.621c5.131,23.45,55.776,51.476,76.684,62.899l0,0c23.702,12.95,48.004,24.774,72.436,36.293 c0,0,0,0,0,0C25.345,25.015,156.234,78.155,209.567,120.433c0,0,0,0,0,0c12.44,9.861,25.077,21.849,24.215,36.921l0,0 c-2.98,52.119-117.162,195.783-150.267,237.299c0,0,0,0,0,0C32.575,458.538-22.873,523.687-78.045,585.87l0,0"/> <path fill="none" stroke="#000000" stroke-width="2.1357" d="M78.099-585.744C32.203-525.649-15.297-464.141-79.485-372.503 c0,0,0,0,0,0c-19.307,27.565-38.294,55.356-56.705,83.526c0,0,0,0,0,0c-106.626,163.142-93.39,182.922-81.498,197.423 c24.356,29.699,103.304,67.094,141.517,85.111c0,0,0,0,0,0C4.197,31.45,95.979,69.889,160.617,105.203l0,0 c18.354,10.028,36.564,20.533,52.954,33.525l0,0c8.93,7.079,21.277,18.16,23.731,29.374c0,0,0,0,0,0 c9.878,45.142-121.382,199.766-151.783,235.702c0,0,0,0,0,0C49.078,446.878,11.582,489.054-26.55,530.638c0,0,0,0,0,0 c-12.353,13.472-24.777,26.879-37.289,40.204c0,0,0,0,0,0c-4.173,4.444-9.103,9.672-13.253,14.031c0,0,0,0,0,0 c-0.237,0.249-0.474,0.498-0.711,0.746c0,0,0,0,0,0c-0.03,0.031-0.211,0.221-0.242,0.254l0,0"/> <path fill="none" stroke="#000000" stroke-width="2.1357" d="M78.099-585.744c-0.339,0.484,1.22-1.677-3.541,4.82c0,0,0,0,0,0 c0,0,0,0,0,0c-3.335,4.552-6.66,9.112-9.977,13.676l0,0c-11.909,16.387-23.73,32.839-35.481,49.34l0,0 C-7.201-466.93-42.862-415.49-77.482-363.356l0,0c-30.075,45.289-141.753,213.663-144.324,268.287l0,0 c-0.122,2.586-0.034,5.197,0.519,7.725c0,0,0,0,0,0c5.118,23.391,55.411,51.277,76.684,62.899c0,0,0,0,0,0 C-80.292,10.692,13.222,49.972,92.187,87.203c0,0,0,0,0,0c35.468,16.724,141.771,65.605,149.12,99.193c0,0,0,0,0,0 c9.888,45.186-122.342,191.605-153.782,226.553c0,0,0,0,0,0c-36.904,41.025-74.859,81.097-113.443,120.545c0,0,0,0,0,0 c-18.543,18.959-35.635,36.107-48.356,48.668c0,0,0,0,0,0c-1.069,1.055-2.49,2.456-3.522,3.468c0,0,0,0,0,0 c-0.022,0.022-0.223,0.218-0.245,0.24l0,0"/> <path fill="none" stroke="#000000" stroke-width="2.1357" d="M78.099-585.744c-0.221,0.323-0.677,0.964-3.496,5.026c0,0,0,0,0,0 c-3.293,4.746-6.575,9.499-9.85,14.257c0,0,0,0,0,0c-11.758,17.081-23.428,34.223-35.027,51.412l0,0 C-6.11-461.943-41.312-408.403-75.481-354.209c0,0,0,0,0,0C-101.132-313.525-227.275-114.7-217.284-69.048c0,0,0,0,0,0 c2.452,11.206,14.78,22.279,23.731,29.374c0,0,0,0,0,0c16.39,12.992,34.6,23.498,52.954,33.525c0,0,0,0,0,0 C-76.021,29.133,16.599,67.972,96.19,105.498l0,0c38.71,18.252,141.839,65.916,149.12,99.193c0,0,0,0,0,0 c9.838,44.959-123.625,183.866-155.784,217.407c0,0,0,0,0,0c-37.371,38.976-75.785,76.945-114.82,114.256c0,0,0,0,0,0 c-12.657,12.099-25.384,24.125-38.197,36.058c0,0,0,0,0,0c-3.572,3.327-7.15,6.647-10.739,9.955c0,0,0,0,0,0 c-0.944,0.87-1.889,1.74-2.835,2.608c0,0,0,0,0,0c-0.243,0.223-0.486,0.445-0.728,0.668c0,0,0,0,0,0 c-0.03,0.028-0.218,0.2-0.249,0.227l0,0"/> <path fill="none" stroke="#000000" stroke-width="2.1357" d="M78.099-585.744C39.729-526.635-10.378-450.34-73.479-345.06l0,0 c-18.562,30.969-36.81,62.126-54.501,93.601c0,0,0,0,0,0c-20.936,37.249-84.107,150.341-85.846,192.878l0,0 c-0.107,2.621-0.019,5.268,0.542,7.831c0,0,0,0,0,0c5.131,23.45,55.775,51.476,76.684,62.899l0,0 c64.578,35.282,157.199,74.12,236.789,111.646l0,0c24.43,11.519,48.732,23.343,72.436,36.293c0,0,0,0,0,0 c21.175,11.569,71.562,39.491,76.684,62.899c0,0,0,0,0,0C262.442,283.004,21.66,497.94-24.672,539.217c0,0,0,0,0,0 c-25.673,22.871-39.699,34.889-53.373,46.657l0,0"/> <path fill="none" stroke="#000000" stroke-width="2.1357" d="M78.099-585.744C34.424-514.918-10.718-442.429-71.475-335.913l0,0 c-18.312,32.101-36.315,64.382-53.766,96.959l0,0C-145.49-201.151-208.195-83.5-209.83-40.344c0,0,0,0,0,0 c-0.1,2.639-0.011,5.303,0.553,7.883c0,0,0,0,0,0c5.118,23.39,55.412,51.277,76.684,62.899l0,0 c64.31,35.135,157.824,74.415,236.789,111.646c0,0,0,0,0,0c24.43,11.519,48.732,23.343,72.436,36.293l0,0 c20.909,11.424,71.553,39.449,76.684,62.899c0,0,0,0,0,0c9.792,44.748-125.293,167.712-159.785,199.116c0,0,0,0,0,0 C39.066,489.983-19.703,539.33-78.04,585.871l0,0"/> <path fill="none" stroke="#000000" stroke-width="2.1357" d="M78.099-585.744C40.342-521.37-8.218-439.478-69.475-326.766l0,0 c-18.063,33.235-35.82,66.637-53.031,100.32l0,0c-19.888,38.921-81.808,160.667-83.336,204.349c0,0,0,0,0,0 c-0.093,2.657-0.003,5.338,0.565,7.935c0,0,0,0,0,0c2.452,11.205,14.779,22.278,23.731,29.374c0,0,0,0,0,0 c53.337,42.28,184.252,95.434,289.742,145.172l0,0c24.43,11.519,48.732,23.343,72.436,36.293l0,0 c20.825,11.378,53.908,30.316,69.081,48.818c8.068,9.838,9.963,17.527,6.418,29.538c-14.62,49.549-121.386,141.317-160.6,174.511 c0,0,0,0,0,0c-55.18,46.71-114.662,92.942-173.575,136.33l0,0"/> <path fill="none" stroke="#000000" stroke-width="2.1357" d="M78.099-585.744C40.853-519.054-7.053-434.192-67.473-317.619l0,0 c-17.813,34.367-35.323,68.889-52.295,103.678l0,0c-19.583,40.138-80.66,165.895-82.08,210.082l0,0 c-0.086,2.675,0.004,5.374,0.576,7.988c0,0,0,0,0,0c2.452,11.205,14.779,22.278,23.731,29.374l0,0 c16.39,12.992,34.6,23.498,52.954,33.525l0,0c64.31,35.135,157.824,74.415,236.789,111.646c0,0,0,0,0,0 c35.468,16.724,141.771,65.605,149.12,99.193c0,0,0,0,0,0c9.769,44.639-126.861,151.867-163.789,180.82c0,0,0,0,0,0 C25.65,515.048-30.944,553.409-78.042,585.87l0,0"/> <path fill="none" stroke="#000000" stroke-width="2.1357" d="M78.099-585.744C41.367-516.742-5.885-428.902-65.471-308.47 c0,0,0,0,0,0c-17.562,35.496-34.827,71.142-51.563,107.037l0,0c-19.03,40.818-79.513,171.047-80.826,215.82l0,0 c-0.079,2.693,0.012,5.409,0.588,8.04c0,0,0,0,0,0c5.131,23.45,55.776,51.476,76.684,62.899l0,0 c64.578,35.282,157.199,74.12,236.789,111.646c0,0,0,0,0,0c24.43,11.519,48.732,23.343,72.436,36.293l0,0 c21.175,11.569,71.562,39.491,76.684,62.899c0,0,0,0,0,0C279.33,360.179-6.549,541.365-62.632,576.35c0,0,0,0,0,0 c-3.785,2.361-7.576,4.713-11.376,7.05c0,0,0,0,0,0c-3.164,1.946-3.978,2.435-4.037,2.474"/> <path fill="none" stroke="#000000" stroke-width="2.1357" d="M78.099-585.744C22.964-477.185-48.582-336.33-114.293-188.936l0,0 c-18.585,41.688-78.364,176.223-79.571,221.555c0,0,0,0,0,0c-0.072,2.711,0.02,5.444,0.599,8.093c0,0,0,0,0,0 c2.452,11.205,14.779,22.278,23.731,29.374l0,0c16.39,12.992,34.6,23.498,52.954,33.525c0,0,0,0,0,0 C12.01,173.865,257.58,260.756,269.329,314.451c0,0,0,0,0,0c14.455,66.061-289.628,238.346-347.368,271.413l0,0"/> <path fill="none" stroke="#000000" stroke-width="2.1357" d="M78.099-585.744c-46.686,27.695-153.324,89.731-244.396,159.195 c0,0,0,0,0,0c-28.835,21.991-72.424,57.183-92.599,87.149c-15.753,23.394-12.455,34.867-2.827,46.608h0 c4.706,5.739,10.311,10.682,16.127,15.292c0,0,0,0,0,0c16.39,12.992,34.6,23.498,52.954,33.525l0,0 c44.654,24.396,105.171,51.605,154.612,73.97l0,0C33.252-137.76,154.878-84.756,185.664-47.217c0,0,0,0,0,0 c7.645,9.321,9.812,15.721,7.138,32.826l0,0c-4.704,30.087-23.893,79.771-35.315,108.157l0,0 c-26.67,66.281-63.228,145.142-93.99,209.417c0,0,0,0,0,0C32.028,368.932-0.405,434.216-33.435,499.188l0,0 c-10.695,21.038-21.455,42.041-32.298,63.002c0,0,0,0,0,0c-3.021,5.839-6.048,11.675-9.085,17.505c0,0,0,0,0,0 c-0.799,1.533-1.598,3.066-2.399,4.598c0,0,0,0,0,0c-0.205,0.393-0.411,0.785-0.616,1.178c0,0,0,0,0,0 c-0.218,0.417-0.182,0.346-0.21,0.4l0,0"/> <path fill="none" stroke="#000000" stroke-width="2.1357" d="M78.073-585.729c-0.052,0.036-0.576,0.356-4.022,2.546c0,0,0,0,0,0 c-3.8,2.416-7.592,4.847-11.377,7.287h0c-13.56,8.74-27.045,17.595-40.472,26.54l0,0c-41.247,27.483-81.956,55.786-121.719,85.376 c0,0,0,0,0,0C-135.86-436.934-275.1-333.211-265.333-288.578c0,0,0,0,0,0c1.151,5.259,4.19,9.919,7.604,14.081c0,0,0,0,0,0 c4.706,5.739,10.311,10.682,16.127,15.292c0,0,0,0,0,0c31.195,24.728,89.479,52.887,125.39,69.819l0,0 c27.255,12.851,54.72,25.257,82.176,37.677l0,0C37.245-119.464,158.871-66.46,189.657-28.921c0,0,0,0,0,0 c7.143,8.71,8.418,14.417,8.192,22.101c-0.841,28.569-25.877,89.567-36.995,116.022l0,0 c-27.077,64.435-64.182,140.911-95.366,203.126c0,0,0,0,0,0c-45.672,91.127-94.941,184.4-143.543,273.544l0,0"/> <path fill="none" stroke="#000000" stroke-width="2.1357" d="M78.099-585.744C23.918-547.266-74.894-477.789-160.822-401.537 c0,0,0,0,0,0c-28.369,25.176-70.805,64.867-90.411,97.152c-15.52,25.554-11.893,36.706-2.483,48.18l0,0 c4.706,5.739,10.311,10.682,16.127,15.292c0,0,0,0,0,0c16.39,12.992,34.6,23.498,52.954,33.525l0,0 c23.704,12.95,48.004,24.774,72.436,36.293l0,0C6.929-114.924,157.409-54.845,193.67-10.63c0,0,0,0,0,0 c7.177,8.751,8.424,14.508,8.18,22.048c-0.909,28.204-26.235,87.318-37.609,113.218l0,0 c-27.408,62.411-64.939,136.298-96.742,196.838c0,0,0,0,0,0C35.137,383.082,1.783,444.167-32.184,504.906c0,0,0,0,0,0 c-22.016,39.367-33.939,60.139-45.86,80.965l0,0"/> <path fill="none" stroke="#000000" stroke-width="2.1357" d="M78.099-585.744C14.261-536.548-76.624-466.593-158.085-389.029 c0,0,0,0,0,0c-18.467,17.583-36.522,35.624-53.436,54.705c0,0,0,0,0,0c-15.163,17.105-38.139,44.659-44.61,66.792 c-3.536,12.095-1.675,19.754,6.418,29.622l0,0c4.706,5.739,10.311,10.682,16.127,15.292c0,0,0,0,0,0 c31.158,24.699,89.328,52.816,125.39,69.819l0,0c27.255,12.851,54.72,25.257,82.176,37.677l0,0 c49.932,22.587,191,82.922,223.693,122.788l0,0c8.102,9.879,9.727,16.763,7.003,32.209c-1.981,7.449-3.766,27.705-37.056,100.198 l0,0c-27.799,60.536-65.833,131.964-98.116,190.549c0,0,0,0,0,0C36.693,390.162,2.878,449.147-31.557,507.764c0,0,0,0,0,0 c-11.145,18.972-22.359,37.904-33.66,56.785c0,0,0,0,0,0c-3.148,5.259-6.302,10.514-9.467,15.763c0,0,0,0,0,0 c-0.832,1.38-1.665,2.76-2.499,4.139c0,0,0,0,0,0c-0.214,0.354-0.428,0.707-0.642,1.06c0,0,0,0,0,0 c-0.024,0.04-0.194,0.321-0.219,0.36l0,0"/> <path fill="none" stroke="#000000" stroke-width="2.1357" d="M78.073-585.729c-0.213,0.167-3.108,2.526-3.886,3.162c0,0,0,0,0,0 c-3.674,2.999-7.338,6.011-10.995,9.03c0,0,0,0,0,0c-13.114,10.826-26.145,21.752-39.11,32.759l0,0 c-39.936,33.903-79.274,68.519-117.59,104.242c0,0,0,0,0,0c-33.962,31.661-169.65,157.894-159.814,202.841c0,0,0,0,0,0 c5.119,23.394,55.428,51.286,76.684,62.899h0c23.702,12.95,48.004,24.774,72.436,36.293c0,0,0,0,0,0 C-24.787-97.059,68.037-58.123,132.587-22.857l0,0c18.354,10.028,36.564,20.533,52.954,33.525c0,0,0,0,0,0 c8.93,7.079,21.277,18.16,23.731,29.374c0,0,0,0,0,0c0.563,2.573,0.654,5.23,0.554,7.861l0,0 c-2.929,77-199.788,396.394-240.764,462.72c0,0,0,0,0,0c-22.664,36.684-34.891,55.942-47.112,75.249l0,0"/> <path fill="none" stroke="#000000" stroke-width="2.1357" d="M78.099-585.744c-43.242,38.738-98.961,87.862-169.597,158.352 c0,0,0,0,0,0c-42.154,42.069-120.58,122.821-148.241,175.529c-16.364,31.182-13.436,43.956,14.16,65.831c0,0,0,0,0,0 C-158.882-133.161,29.129-63.281,136.6-4.566l0,0c18.354,10.028,36.564,20.533,52.954,33.525c0,0,0,0,0,0 c8.93,7.079,21.277,18.16,23.731,29.374c0,0,0,0,0,0c0.559,2.556,0.649,5.195,0.542,7.809c0,0,0,0,0,0 c-2.289,55.785-111.094,234.734-140.318,282.772c0,0,0,0,0,0C39.799,404.328,5.063,459.112-30.303,513.481c0,0,0,0,0,0 c-11.447,17.596-22.963,35.147-34.567,52.639c0,0,0,0,0,0c-3.232,4.872-6.471,9.741-9.721,14.601c0,0,0,0,0,0 c-0.855,1.278-1.71,2.556-2.567,3.833c0,0,0,0,0,0c-0.112,0.167-0.771,1.149-0.884,1.315l0,0"/> <path fill="none" stroke="#000000" stroke-width="2.1357" d="M78.099-585.744c-42.762,41.08-97.836,93.189-167.596,167.501l0,0 c-20.532,21.873-40.747,44.049-60.38,66.734c0,0,0,0,0,0c-23.619,27.292-103.082,119.437-95.432,154.4c0,0,0,0,0,0 c2.452,11.206,14.781,22.28,23.731,29.374c0,0,0,0,0,0c66.545,52.75,255.28,123.063,362.179,181.465l0,0 c21.167,11.564,71.562,39.49,76.684,62.899c0,0,0,0,0,0c0.555,2.539,0.645,5.16,0.531,7.757c0,0,0,0,0,0 c-3.314,75.137-204.918,369.877-247.497,431.955c0,0,0,0,0,0c-23.236,33.877-35.787,51.657-48.365,69.53l0,0"/> <path fill="none" stroke="#000000" stroke-width="2.1357" d="M78.099-585.744c-41.645,42.772-96.52,98.305-165.592,176.649l0,0 c-20.29,23.014-40.26,46.311-59.644,70.092h0c-22.709,27.857-101.847,125.094-94.167,160.188c0,0,0,0,0,0 c2.452,11.206,14.781,22.28,23.731,29.374c0,0,0,0,0,0c66.545,52.75,255.28,123.063,362.179,181.465l0,0 c18.354,10.028,36.564,20.533,52.954,33.525c0,0,0,0,0,0c8.93,7.079,21.277,18.16,23.731,29.374c0,0,0,0,0,0 c9.96,45.515-116.413,231.735-143.778,272.288c0,0,0,0,0,0C42.898,418.503,7.243,469.084-29.052,519.2c0,0,0,0,0,0 c-23.538,32.499-36.427,49.775-48.991,66.671l0,0"/> <path fill="none" stroke="#000000" stroke-width="2.1357" d="M78.099-585.744C36.751-540.466-17.283-482.126-85.493-399.947l0,0 c-40.727,49.072-116.268,142.685-142.755,200.613c0,0,0,0,0,0c-4.84,10.585-11.542,27.445-9.055,38.815c0,0,0,0,0,0 c5.119,23.394,55.428,51.286,76.684,62.899l0,0c23.702,12.95,48.004,24.774,72.436,36.293l0,0 C-8.767-23.882,84.057,15.054,148.607,50.32l0,0c18.354,10.028,36.564,20.533,52.954,33.525c0,0,0,0,0,0 c8.93,7.079,21.277,18.16,23.731,29.374c0,0,0,0,0,0c0.548,2.504,0.637,5.091,0.508,7.652l0,0 C223.092,174.499,110.81,332.421,79.51,376.364c0,0,0,0,0,0c-35.067,49.233-71.183,97.716-107.94,145.7c0,0,0,0,0,0 c-11.899,15.533-23.869,31.012-35.929,46.422c0,0,0,0,0,0c-3.359,4.293-6.726,8.58-10.103,12.859c0,0,0,0,0,0 c-0.888,1.125-1.777,2.25-2.667,3.373c0,0,0,0,0,0c-0.228,0.288-0.457,0.576-0.685,0.864c0,0,0,0,0,0 c-0.027,0.034-0.211,0.266-0.234,0.293l0,0"/> <path fill="none" stroke="#000000" stroke-width="2.1357" d="M78.099-585.744C17.471-515.128-211.672-248.779-232.38-158.998 c-3.38,14.655-3.022,25.667,22.814,46.147c16.39,12.992,34.6,23.498,52.954,33.525l0,0c23.702,12.95,48.004,24.774,72.436,36.293 c0,0,0,0,0,0C-3.807-5.138,87.976,33.3,152.613,68.614l0,0c18.354,10.028,36.564,20.533,52.954,33.525l0,0 c8.93,7.079,21.277,18.16,23.731,29.374c0,0,0,0,0,0c0.544,2.487,0.633,5.057,0.496,7.599l0,0 c-2.843,52.845-116.427,204.094-148.276,246.395c0,0,0,0,0,0C45.995,432.686,9.419,479.066-27.797,524.919c0,0,0,0,0,0 c-12.05,14.846-24.171,29.634-36.381,44.349c0,0,0,0,0,0c-3.402,4.1-6.811,8.194-10.23,12.278c0,0,0,0,0,0 c-0.899,1.074-1.799,2.148-2.701,3.22c0,0,0,0,0,0c-0.231,0.275-0.462,0.55-0.694,0.825c0,0,0,0,0,0 c-0.022,0.026-0.214,0.254-0.237,0.28l0,0"/> <path fill="none" stroke="#000000" stroke-width="2.1357" d="M78.099-585.744C37.687-535.79-15.132-471.34-81.487-381.652l0,0 c-19.554,26.427-38.787,53.096-57.44,80.168c0,0,0,0,0,0c-22.922,33.266-88.706,129.614-90.865,169.932c0,0,0,0,0,0 c-0.137,2.55-0.05,5.126,0.496,7.621c5.131,23.45,55.776,51.476,76.684,62.899l0,0c23.702,12.95,48.004,24.774,72.436,36.293 c0,0,0,0,0,0C25.345,25.015,156.234,78.155,209.567,120.433c0,0,0,0,0,0c12.44,9.861,25.077,21.849,24.215,36.921l0,0 c-2.98,52.119-117.162,195.783-150.267,237.299c0,0,0,0,0,0C32.575,458.538-22.873,523.687-78.045,585.87l0,0"/> <path fill="none" stroke="#000000" stroke-width="2.1357" d="M78.099-585.744C32.203-525.649-15.297-464.141-79.485-372.503 c0,0,0,0,0,0c-19.307,27.565-38.294,55.356-56.705,83.526c0,0,0,0,0,0c-106.626,163.142-93.39,182.922-81.498,197.423 c24.356,29.699,103.304,67.094,141.517,85.111c0,0,0,0,0,0C4.197,31.45,95.979,69.889,160.617,105.203l0,0 c18.354,10.028,36.564,20.533,52.954,33.525l0,0c8.93,7.079,21.277,18.16,23.731,29.374c0,0,0,0,0,0 c9.878,45.142-121.382,199.766-151.783,235.702c0,0,0,0,0,0C49.078,446.878,11.582,489.054-26.55,530.638c0,0,0,0,0,0 c-12.353,13.472-24.777,26.879-37.289,40.204c0,0,0,0,0,0c-4.173,4.444-9.103,9.672-13.253,14.031c0,0,0,0,0,0 c-0.237,0.249-0.474,0.498-0.711,0.746c0,0,0,0,0,0c-0.03,0.031-0.211,0.221-0.242,0.254l0,0"/> <path fill="none" stroke="#000000" stroke-width="2.1357" d="M78.099-585.744c-0.339,0.484,1.22-1.677-3.541,4.82c0,0,0,0,0,0 c0,0,0,0,0,0c-3.335,4.552-6.66,9.112-9.977,13.676l0,0c-11.909,16.387-23.73,32.839-35.481,49.34l0,0 C-7.201-466.93-42.862-415.49-77.482-363.356l0,0c-30.075,45.289-141.753,213.663-144.324,268.287l0,0 c-0.122,2.586-0.034,5.197,0.519,7.725c0,0,0,0,0,0c5.118,23.391,55.411,51.277,76.684,62.899c0,0,0,0,0,0 C-80.292,10.692,13.222,49.972,92.187,87.203c0,0,0,0,0,0c35.468,16.724,141.771,65.605,149.12,99.193c0,0,0,0,0,0 c9.888,45.186-122.342,191.605-153.782,226.553c0,0,0,0,0,0c-36.904,41.025-74.859,81.097-113.443,120.545c0,0,0,0,0,0 c-18.543,18.959-35.635,36.107-48.356,48.668c0,0,0,0,0,0c-1.069,1.055-2.49,2.456-3.522,3.468c0,0,0,0,0,0 c-0.022,0.022-0.223,0.218-0.245,0.24l0,0"/> <path fill="none" stroke="#000000" stroke-width="2.1357" d="M78.099-585.744c-0.221,0.323-0.677,0.964-3.496,5.026c0,0,0,0,0,0 c-3.293,4.746-6.575,9.499-9.85,14.257c0,0,0,0,0,0c-11.758,17.081-23.428,34.223-35.027,51.412l0,0 C-6.11-461.943-41.312-408.403-75.481-354.209c0,0,0,0,0,0C-101.132-313.525-227.275-114.7-217.284-69.048c0,0,0,0,0,0 c2.452,11.206,14.78,22.279,23.731,29.374c0,0,0,0,0,0c16.39,12.992,34.6,23.498,52.954,33.525c0,0,0,0,0,0 C-76.021,29.133,16.599,67.972,96.19,105.498l0,0c38.71,18.252,141.839,65.916,149.12,99.193c0,0,0,0,0,0 c9.838,44.959-123.625,183.866-155.784,217.407c0,0,0,0,0,0c-37.371,38.976-75.785,76.945-114.82,114.256c0,0,0,0,0,0 c-12.657,12.099-25.384,24.125-38.197,36.058c0,0,0,0,0,0c-3.572,3.327-7.15,6.647-10.739,9.955c0,0,0,0,0,0 c-0.944,0.87-1.889,1.74-2.835,2.608c0,0,0,0,0,0c-0.243,0.223-0.486,0.445-0.728,0.668c0,0,0,0,0,0 c-0.03,0.028-0.218,0.2-0.249,0.227l0,0"/> <path fill="none" stroke="#000000" stroke-width="2.1357" d="M78.099-585.744C39.729-526.635-10.378-450.34-73.479-345.06l0,0 c-18.562,30.969-36.81,62.126-54.501,93.601c0,0,0,0,0,0c-20.936,37.249-84.107,150.341-85.846,192.878l0,0 c-0.107,2.621-0.019,5.268,0.542,7.831c0,0,0,0,0,0c5.131,23.45,55.775,51.476,76.684,62.899l0,0 c64.578,35.282,157.199,74.12,236.789,111.646l0,0c24.43,11.519,48.732,23.343,72.436,36.293c0,0,0,0,0,0 c21.175,11.569,71.562,39.491,76.684,62.899c0,0,0,0,0,0C262.442,283.004,21.66,497.94-24.672,539.217c0,0,0,0,0,0 c-25.673,22.871-39.699,34.889-53.373,46.657l0,0"/> <path fill="none" stroke="#000000" stroke-width="2.1357" d="M78.099-585.744C34.424-514.918-10.718-442.429-71.475-335.913l0,0 c-18.312,32.101-36.315,64.382-53.766,96.959l0,0C-145.49-201.151-208.195-83.5-209.83-40.344c0,0,0,0,0,0 c-0.1,2.639-0.011,5.303,0.553,7.883c0,0,0,0,0,0c5.118,23.39,55.412,51.277,76.684,62.899l0,0 c64.31,35.135,157.824,74.415,236.789,111.646c0,0,0,0,0,0c24.43,11.519,48.732,23.343,72.436,36.293l0,0 c20.909,11.424,71.553,39.449,76.684,62.899c0,0,0,0,0,0c9.792,44.748-125.293,167.712-159.785,199.116c0,0,0,0,0,0 C39.066,489.983-19.703,539.33-78.04,585.871l0,0"/> <path fill="none" stroke="#000000" stroke-width="2.1357" d="M78.099-585.744C40.342-521.37-8.218-439.478-69.475-326.766l0,0 c-18.063,33.235-35.82,66.637-53.031,100.32l0,0c-19.888,38.921-81.808,160.667-83.336,204.349c0,0,0,0,0,0 c-0.093,2.657-0.003,5.338,0.565,7.935c0,0,0,0,0,0c2.452,11.205,14.779,22.278,23.731,29.374c0,0,0,0,0,0 c53.337,42.28,184.252,95.434,289.742,145.172l0,0c24.43,11.519,48.732,23.343,72.436,36.293l0,0 c20.825,11.378,53.908,30.316,69.081,48.818c8.068,9.838,9.963,17.527,6.418,29.538c-14.62,49.549-121.386,141.317-160.6,174.511 c0,0,0,0,0,0c-55.18,46.71-114.662,92.942-173.575,136.33l0,0"/> <path fill="none" stroke="#000000" stroke-width="2.1357" d="M78.099-585.744C40.853-519.054-7.053-434.192-67.473-317.619l0,0 c-17.813,34.367-35.323,68.889-52.295,103.678l0,0c-19.583,40.138-80.66,165.895-82.08,210.082l0,0 c-0.086,2.675,0.004,5.374,0.576,7.988c0,0,0,0,0,0c2.452,11.205,14.779,22.278,23.731,29.374l0,0 c16.39,12.992,34.6,23.498,52.954,33.525l0,0c64.31,35.135,157.824,74.415,236.789,111.646c0,0,0,0,0,0 c35.468,16.724,141.771,65.605,149.12,99.193c0,0,0,0,0,0c9.769,44.639-126.861,151.867-163.789,180.82c0,0,0,0,0,0 C25.65,515.048-30.944,553.409-78.042,585.87l0,0"/> <path fill="none" stroke="#000000" stroke-width="2.1357" d="M78.099-585.744C41.367-516.742-5.885-428.902-65.471-308.47 c0,0,0,0,0,0c-17.562,35.496-34.827,71.142-51.563,107.037l0,0c-19.03,40.818-79.513,171.047-80.826,215.82l0,0 c-0.079,2.693,0.012,5.409,0.588,8.04c0,0,0,0,0,0c5.131,23.45,55.776,51.476,76.684,62.899l0,0 c64.578,35.282,157.199,74.12,236.789,111.646c0,0,0,0,0,0c24.43,11.519,48.732,23.343,72.436,36.293l0,0 c21.175,11.569,71.562,39.491,76.684,62.899c0,0,0,0,0,0C279.33,360.179-6.549,541.365-62.632,576.35c0,0,0,0,0,0 c-3.785,2.361-7.576,4.713-11.376,7.05c0,0,0,0,0,0c-3.164,1.946-3.978,2.435-4.037,2.474"/> <path fill="none" stroke="#000000" stroke-width="2.1357" d="M78.099-585.744C22.964-477.185-48.582-336.33-114.293-188.936l0,0 c-18.585,41.688-78.364,176.223-79.571,221.555c0,0,0,0,0,0c-0.072,2.711,0.02,5.444,0.599,8.093c0,0,0,0,0,0 c2.452,11.205,14.779,22.278,23.731,29.374l0,0c16.39,12.992,34.6,23.498,52.954,33.525c0,0,0,0,0,0 C12.01,173.865,257.58,260.756,269.329,314.451c0,0,0,0,0,0c14.455,66.061-289.628,238.346-347.368,271.413l0,0"/> </symbol> <g> <g id="_x3C_Radial_Repeat_x3E__14_"> <use xlink:href="#Object" width="541.792" height="1173.582" x="-270.896" y="-586.791" transform="matrix(1.7879 -0.6146 -0.6146 -1.7879 2145.4968 1107.6105)" overflow="visible"/> </g> <g id="_x3C_Radial_Repeat_x3E__13_"> <use xlink:href="#Object" width="541.792" height="1173.582" x="-270.896" y="-586.791" transform="matrix(1.8556 0.3617 0.3617 -1.8556 2889.186 1116.9009)" overflow="visible"/> </g> <g id="_x3C_Radial_Repeat_x3E__12_"> <use xlink:href="#Object" width="541.792" height="1173.582" x="-270.896" y="-586.791" transform="matrix(1.4262 1.2411 1.2411 -1.4262 3528.5935 1496.7965)" overflow="visible"/> </g> <g id="_x3C_Radial_Repeat_x3E__11_"> <use xlink:href="#Object" width="541.792" height="1173.582" x="-270.896" y="-586.791" transform="matrix(0.6146 1.7879 1.7879 -0.6146 3892.3909 2145.4968)" overflow="visible"/> </g> <g id="_x3C_Radial_Repeat_x3E__10_"> <use xlink:href="#Object" width="541.792" height="1173.582" x="-270.896" y="-586.791" transform="matrix(-0.3617 1.8556 1.8556 0.3617 3883.0977 2889.188)" overflow="visible"/> </g> <g id="_x3C_Radial_Repeat_x3E__9_"> <use xlink:href="#Object" width="541.792" height="1173.582" x="-270.896" y="-586.791" transform="matrix(-1.2411 1.4262 1.4262 1.2411 3503.2043 3528.5952)" overflow="visible"/> </g> <g id="_x3C_Radial_Repeat_x3E__8_"> <use xlink:href="#Object" width="541.792" height="1173.582" x="-270.896" y="-586.791" transform="matrix(-1.7879 0.6146 0.6146 1.7879 2854.5029 3892.3923)" overflow="visible"/> </g> <g id="_x3C_Radial_Repeat_x3E__7_"> <use xlink:href="#Object" width="541.792" height="1173.582" x="-270.896" y="-586.791" transform="matrix(-1.8556 -0.3617 -0.3617 1.8556 2110.8135 3883.0991)" overflow="visible"/> </g> <g id="_x3C_Radial_Repeat_x3E__6_"> <use xlink:href="#Object" width="541.792" height="1173.582" x="-270.896" y="-586.791" transform="matrix(-1.4262 -1.2411 -1.2411 1.4262 1471.4061 3503.2058)" overflow="visible"/> </g> <g id="_x3C_Radial_Repeat_x3E__5_"> <use xlink:href="#Object" width="541.792" height="1173.582" x="-270.896" y="-586.791" transform="matrix(-0.6146 -1.7879 -1.7879 0.6146 1107.6086 2854.5044)" overflow="visible"/> </g> <g id="_x3C_Radial_Repeat_x3E__4_"> <use xlink:href="#Object" width="541.792" height="1173.582" x="-270.896" y="-586.791" transform="matrix(0.3617 -1.8556 -1.8556 -0.3617 1116.9009 2110.8149)" overflow="visible"/> </g> <g id="_x3C_Radial_Repeat_x3E__3_"> <use xlink:href="#Object" width="541.792" height="1173.582" x="-270.896" y="-586.791" transform="matrix(1.2411 -1.4262 -1.4262 -1.2411 1496.7928 1471.407)" overflow="visible"/> </g> </g> </svg>